<svg id="Layer_1" data-name="Layer 1" xmlns="http://www.w3.org/2000/svg" viewBox="0 0 941.14 860.8"><defs><style>.cls-1{fill:#fff;}</style></defs><path class="cls-1" d="M224.86,551.32,438,754.4c24.06,22.92,48.37,45.56,72.1,68.82,21.14,20.73,21.06,56.37.53,79.15-19.37,21.5-50.16,23.12-73.24,1.71-85-78.84-169.47-158.31-254.14-237.54-45-42.1-89.79-84.41-135.08-126.19-31.33-28.9-31.24-63,.93-91.87Q251.88,266.26,454.58,84c17.62-15.84,34.58-32.14,62.05-22.6,40.63,14.11,52.73,59.37,21.44,88.83-63.15,59.45-127.44,117.68-191.31,176.36-38.64,35.5-77.38,70.9-119.79,109.76,11.77.75,18.53,1.55,25.3,1.55q326.9.11,653.79.09c32.23,0,52.43,15,58.89,43,5.39,23.35-11.08,55.67-35.41,65.82-9.25,3.85-20.37,4.36-30.64,4.37q-320.83.35-641.66.17Z" transform="translate(-24.83 -58.54)"/></svg>