<?xml version="1.0" encoding="utf-8"?>
<!-- Generator: Adobe Illustrator 26.0.1, SVG Export Plug-In . SVG Version: 6.00 Build 0)  -->
<svg version="1.1" id="Layer_1" xmlns="http://www.w3.org/2000/svg" xmlns:xlink="http://www.w3.org/1999/xlink" x="0px" y="0px"
	 viewBox="0 0 128 128" style="enable-background:new 0 0 128 128;" xml:space="preserve">
<style type="text/css">
	.st0{fill:#FFFFFF;}
</style>
<g>
	<path class="st0" d="M37.8,38.5C37.8,59.7,55.2,77,76.3,77s38.5-17.3,38.5-38.5S97.5,0,76.3,0S37.8,17.3,37.8,38.5z M101.3,38.7
		c0,13.7-11.2,24.8-24.8,24.8S51.7,52.3,51.7,38.7s11.2-24.8,24.8-24.8S101.3,25,101.3,38.7z"/>
	<path class="st0" d="M37.1,125.5c0.5,0,1-0.3,1.4-0.9c10.6-16.5,13.6-28.5,37.9-28.5c23.7,0,27.3,12,37.9,28.5
		c0.4,0.6,0.9,0.9,1.4,0.9l8.9-0.1c1.7,0,2.6-3.2,1.4-5.1c-11.5-17.9-23.7-37-49.5-37c-25.5,0-38.1,19.2-49.6,37.1
		c-1.2,1.9-0.3,5.1,1.4,5.1L37.1,125.5z"/>
</g>
<g id="Layer_54">
	<path class="st0" d="M22.7,99.7c-1,0-2-0.4-2.7-1.1L6.6,85.3c-2.1-2.1-3.3-5-3.2-8.1c0-5.7,4.7-10.4,10.5-10.3c0,0,0,0,0,0
		c2.8,0,5.5,1.1,7.5,3.1l1.3,1.3l1.1-1.1l0,0c3.8-3.9,9.8-4.4,14.2-1.1c4.7,3.6,5.5,10.3,1.9,14.9c-0.3,0.4-0.6,0.7-0.9,1L25.4,98.6
		C24.7,99.3,23.7,99.7,22.7,99.7z"/>
</g>
</svg>
