<?xml version="1.0" encoding="utf-8"?>
<!-- Generator: Adobe Illustrator 26.0.1, SVG Export Plug-In . SVG Version: 6.00 Build 0)  -->
<svg version="1.1" id="Layer_1" xmlns="http://www.w3.org/2000/svg" xmlns:xlink="http://www.w3.org/1999/xlink" x="0px" y="0px"
	 viewBox="0 0 32 32" style="enable-background:new 0 0 32 32;" xml:space="preserve">
<style type="text/css">
	.st0{fill:#FFFFFF;}
</style>
<g id="Layer_54">
	<path class="st0" d="M9.8,6.4C8.4,6.4,7,7,6,8c-1.1,1-1.7,2.4-1.7,3.9c0,1.6,0.6,3.2,1.8,4.3l9.3,9.3c0.4,0.4,0.9,0.4,1.3,0
		c0,0,0,0,0,0l9.5-9.5c1.1-1.1,1.7-2.7,1.6-4.3c-0.1-1.6-0.9-3.1-2.2-4.1c-2.3-1.7-5.5-1.4-7.5,0.6l-1.3,1.4c-0.4,0.4-0.9,0.4-1.3,0
		c0,0,0,0,0,0l-1.5-1.5C12.7,7,11.3,6.4,9.8,6.4L9.8,6.4z M16,28.7c-0.8,0-1.6-0.3-2.1-0.9L3.6,17.5C1.9,15.9,1,13.6,1,11.3
		c0-4.5,3.7-8,8.1-8c0,0,0,0,0,0c2.2,0,4.3,0.8,5.8,2.4l1,1l0.8-0.8l0,0c2.9-3,7.6-3.4,11-0.9c3.6,2.8,4.3,8,1.5,11.6
		c-0.2,0.3-0.4,0.5-0.7,0.8L18.1,27.8C17.6,28.4,16.8,28.7,16,28.7z"/>
</g>
</svg>
