<svg id="Layer_1" data-name="Layer 1" xmlns="http://www.w3.org/2000/svg" viewBox="0 0 457.83 653.49"><defs><style>.cls-1{fill:#e9ecee;}</style></defs><path class="cls-1" d="M329,425.23c-7.64-.4-15.31-.15-23-.09-21,.18-34.9,13.91-34.91,34.78q-.08,161.44,0,322.9c0,19.84,15.29,35,35.26,35q194,0,388,0a35.67,35.67,0,0,0,10.11-1c15.11-4.33,24.4-16.77,24.4-33.37q.06-162.09,0-324.18c0-1.7,0-3.4-.13-5.1a30.68,30.68,0,0,0-22.15-27.51c-5-1.52-10-1.52-15.16-1.52ZM687.82,748a30.19,30.19,0,0,1-30.18,30.19h-314A30.19,30.19,0,0,1,313.5,748V496.58a30.19,30.19,0,0,1,30.18-30.19h314a30.19,30.19,0,0,1,30.18,30.19Z" transform="translate(-271.09 -164.33)"/><path class="cls-1" d="M407.51,425.72c-6.44,0-8.41-1.79-8.34-8.27.32-28.28.13-56.58.16-84.87a120.45,120.45,0,0,1,1.4-19.69c8.17-49.37,53.8-90.75,106.73-81.92,40.29,6.73,67.56,29,81.29,67.61,3.91,11,3.71,22.58,5.23,33.92,2.41,18.05,17.14,29.86,35.89,28.77,16.39-1,29.64-15.22,30-32.43a130.76,130.76,0,0,0-2.34-27.27c-11-58.76-44-100.18-98.16-124.95-14-6.42-29.08-9.25-44.07-12.29h-37c-1.43.34-2.85.78-4.31,1-36.54,5.79-67.73,22-93.07,48.76-31.71,33.46-48.84,78.16-48.55,124.26.17,26.72-.12,53.44.15,80.16,0,5.7-1.82,7.45-7.35,7.17" transform="translate(-271.09 -164.33)"/><path class="cls-1" d="M592,313.57a121.45,121.45,0,0,1,1.4,19.68c0,28.3-.17,63.7.15,92l66.64,1.06c.27-26.72,0-60.55.15-87.27.29-46.1-16.85-90.8-48.56-124.26l-.73,66.39Z" transform="translate(-271.09 -164.33)"/><rect class="cls-1" x="189.43" y="399.67" width="78.97" height="117.68" rx="39.48"/><path class="cls-1" d="M660.6,458.71H342a39.66,39.66,0,0,0-39.66,39.66V747.31A39.66,39.66,0,0,0,342,787H660.6a39.66,39.66,0,0,0,39.66-39.66V498.37A39.66,39.66,0,0,0,660.6,458.71Zm-5.36,260.73a39.66,39.66,0,0,1-39.66,39.66H385.74a39.66,39.66,0,0,1-39.66-39.66V538.79a39.66,39.66,0,0,1,39.66-39.66H615.58a39.66,39.66,0,0,1,39.66,39.66Z" transform="translate(-271.09 -164.33)"/></svg>