<svg id="Layer_1" data-name="Layer 1" xmlns="http://www.w3.org/2000/svg" viewBox="0 0 650.13 652.91"><defs><style>.cls-1{fill:#d9ebf7;}</style></defs><path class="cls-1" d="M329,425.23c-7.64-.4-15.31-.15-23-.09-21,.18-34.9,13.91-34.91,34.78q-.08,161.44,0,322.9c0,19.84,15.29,35,35.26,35q194,0,388,0a35.67,35.67,0,0,0,10.11-1c15.11-4.33,24.4-16.77,24.4-33.37q.06-162.09,0-324.18c0-1.7,0-3.4-.13-5.1a30.68,30.68,0,0,0-22.15-27.51c-5-1.52-10-1.52-15.16-1.52ZM687.82,748a30.19,30.19,0,0,1-30.18,30.19h-314A30.19,30.19,0,0,1,313.5,748V496.58a30.19,30.19,0,0,1,30.18-30.19h314a30.19,30.19,0,0,1,30.18,30.19Z" transform="translate(-271.09 -164.91)"/><path class="cls-1" d="M668.77,426.3c-6.44,0-8.41-1.79-8.34-8.27.32-28.29.13-56.58.16-84.87a119.35,119.35,0,0,1,1.4-19.69c8.17-49.38,53.79-90.75,106.73-81.92,40.29,6.72,67.56,29,81.29,67.61,3.91,11,3.71,22.58,5.23,33.92,2.41,18.05,17.14,29.85,35.89,28.77,16.39-1,29.64-15.22,30-32.43a130.76,130.76,0,0,0-2.34-27.27c-11-58.76-44-100.18-98.16-124.95-14-6.42-29.08-9.25-44.07-12.29h-37c-1.44.34-2.85.78-4.31,1-36.54,5.79-67.74,22-93.07,48.76-31.71,33.46-48.84,78.16-48.55,124.26.16,26.71-.12,53.44.14,80.15.06,5.71-1.81,7.46-7.34,7.18" transform="translate(-271.09 -164.91)"/><rect class="cls-1" x="460.52" y="564" width="78.97" height="117.68" rx="39.48" transform="translate(851.75 -42.07) rotate(90)"/><path class="cls-1" d="M660.6,458.71H342a39.66,39.66,0,0,0-39.66,39.66V747.31A39.66,39.66,0,0,0,342,787H660.6a39.66,39.66,0,0,0,39.66-39.66V498.37A39.66,39.66,0,0,0,660.6,458.71Zm-5.36,260.73a39.66,39.66,0,0,1-39.66,39.66H385.74a39.66,39.66,0,0,1-39.66-39.66V538.79a39.66,39.66,0,0,1,39.66-39.66H615.58a39.66,39.66,0,0,1,39.66,39.66Z" transform="translate(-271.09 -164.91)"/></svg>