<?xml version="1.0" encoding="utf-8"?>
<!-- Generator: Adobe Illustrator 26.0.1, SVG Export Plug-In . SVG Version: 6.00 Build 0)  -->
<svg version="1.1" id="Layer_1" xmlns="http://www.w3.org/2000/svg" xmlns:xlink="http://www.w3.org/1999/xlink" x="0px" y="0px"
	 viewBox="0 0 24 24" style="enable-background:new 0 0 24 24;" xml:space="preserve">
<style type="text/css">
	.st0{fill-rule:evenodd;clip-rule:evenodd;fill:#FFFFFF;}
</style>
<path class="st0" d="M19.5,0.8h-15c-2.1,0-3.7,1.7-3.7,3.7v15c0,2.1,1.7,3.7,3.7,3.7h15c2.1,0,3.7-1.7,3.7-3.7v-15
	C23.2,2.4,21.6,0.8,19.5,0.8z M20.7,19.5c0,0.7-0.6,1.2-1.2,1.2h-15c-0.7,0-1.2-0.6-1.2-1.2v-15c0-0.7,0.6-1.2,1.2-1.2h15
	c0.7,0,1.2,0.6,1.2,1.2V19.5z"/>
<polygon class="st0" points="10.1,18.7 13.9,15.1 19.5,20.1 4.5,20.1 8.3,17.2 "/>
<circle class="st0" cx="7.6" cy="7.6" r="1.9"/>
</svg>
