<svg id="Layer_1" data-name="Layer 1" xmlns="http://www.w3.org/2000/svg" viewBox="0 0 827.86 827.19"><defs><style>.cls-1{fill:#2aade3;}</style></defs><path class="cls-1" d="M86.6,500.65c.71-82.82,61.58-152.85,143.77-163.56,59.43-7.74,108.85,12.35,148.32,57,4.25,4.81,6.87,5.6,12.64,2.53q87.32-46.39,175-92.16c16.28-8.53,33.11-3.65,40.29,11.35,6.65,13.92,1.38,29.1-13.41,37-29.32,15.66-58.8,31-88.21,46.52s-58.75,31.12-88.32,46.31c-5.56,2.85-6.19,5.69-4.56,11.36a155.51,155.51,0,0,1,.06,87.4c-1.78,6.21-.8,8.88,5,11.9q87.67,45.68,175,92c15.78,8.33,21.38,23.84,14.14,38.11s-23.6,19.34-39,11.35C531.53,679.08,495.79,660.21,460,641.4c-23.09-12.13-46.22-24.18-69.18-36.54-4.73-2.54-7.36-2.74-11.41,1.84-45.79,51.73-103.06,71.59-169.73,53.58-66.18-17.88-105.83-63.47-120.06-130.6C87.64,520.21,87.57,510.33,86.6,500.65Zm166-110.11c-60.2.08-110.13,50-110.19,110.22s49.81,110.23,110,110.42c60.54.19,110.79-50.08,110.62-110.66C362.83,440.3,312.78,390.46,252.56,390.54Z" transform="translate(-86.6 -87.27)"/><path class="cls-1" d="M776.86,87.27A137.84,137.84,0,1,1,776.35,363c-76.6,0-137.72-61.78-137.58-139C638.92,148.46,700.75,87.24,776.86,87.27Zm82.46,137.84c0-45.19-37.76-82.87-82.92-82.71-44.9.15-82.19,37.33-82.5,82.27-.31,45.11,37.27,83,82.49,83.15S859.31,270.29,859.32,225.11Z" transform="translate(-86.6 -87.27)"/><path class="cls-1" d="M776.7,638.77A137.84,137.84,0,1,1,638.77,776.51,137.53,137.53,0,0,1,776.7,638.77Zm-.29,55.13c-45.23.15-82.79,38-82.51,83.12.28,44.91,37.59,82.13,82.49,82.31,45.12.17,82.91-37.53,82.93-82.71S821.57,693.75,776.41,693.9Z" transform="translate(-86.6 -87.27)"/><path class="cls-1" d="M197.57,501A55.12,55.12,0,1,1,252.86,556,54.77,54.77,0,0,1,197.57,501Z" transform="translate(-86.6 -87.27)"/></svg>