<?xml version="1.0" encoding="utf-8"?>
<!-- Generator: Adobe Illustrator 26.0.1, SVG Export Plug-In . SVG Version: 6.00 Build 0)  -->
<svg version="1.1" id="Layer_1" xmlns="http://www.w3.org/2000/svg" xmlns:xlink="http://www.w3.org/1999/xlink" x="0px" y="0px"
	 viewBox="0 0 24 24" style="enable-background:new 0 0 24 24;" xml:space="preserve">
<style type="text/css">
	.st0{fill:none;stroke:#000000;stroke-width:2;stroke-miterlimit:10;}
</style>
<path class="st0" d="M20.7,9.9l0.7,0.6c0.9,0.8,0.9,2.2,0,3l-1.1,1c-0.4,0.4-0.7,1-0.7,1.6l0.1,1.5c0.1,1.2-0.9,2.1-2.1,2.1
	l-1.5-0.1c-0.6,0-1.2,0.2-1.6,0.7l-1,1.1c-0.8,0.9-2.2,0.9-3,0l-1-1.1c-0.4-0.4-1-0.7-1.6-0.7l-1.5,0.1c-1.2,0.1-2.1-0.9-2.1-2.1
	l0.1-1.5c0-0.6-0.2-1.2-0.7-1.6l-1.1-1c-0.9-0.8-0.9-2.2,0-3l1.1-1c0.4-0.4,0.7-1,0.7-1.6L4.3,6.4c0-1.2,0.9-2.1,2.1-2.1l1.5,0.1
	c0.6,0,1.2-0.2,1.6-0.7l1-1.1c0.8-0.9,2.2-0.9,3,0l2.7,2.8"/>
<path class="st0" d="M7.8,10.9l3.5,3.5L22,3.8"/>
</svg>
